<?xml version="1.0" encoding="utf-8"?>
<!-- Generator: Adobe Illustrator 25.0.0, SVG Export Plug-In . SVG Version: 6.00 Build 0)  -->
<svg version="1.1" id="Layer_1" xmlns="http://www.w3.org/2000/svg" xmlns:xlink="http://www.w3.org/1999/xlink" x="0px" y="0px"
	 viewBox="0 0 4113.3 1152.9" style="enable-background:new 0 0 4113.3 1152.9;" xml:space="preserve">
<style type="text/css">
	.st0{display:none;}
	.st1{display:inline;fill:none;}
	.st2{display:inline;fill:#FFFFFF;}
	.st3{font-family:'ProximaNova-Bold';}
	.st4{font-size:213px;}
	.st5{display:inline;fill:#FDBB30;}
	.st6{fill:#FF8800;}
	.st7{fill:#FFFFFF;}
</style>
<g id="Not_x5F_Outlined" class="st0">
	<rect x="-27.1" y="1166.8" class="st1" width="4163.6" height="143.4"/>
	<text transform="matrix(1 0 0 1 37.1256 1308.8336)" class="st2 st3 st4">WORK       STUDY       TRAVEL       ADVICE</text>
	<circle class="st5" cx="875.2" cy="1238.7" r="46.2"/>
	<circle class="st5" cx="1945.1" cy="1238.7" r="46.2"/>
	<circle class="st5" cx="3103" cy="1238.7" r="46.2"/>
</g>
<g id="Outlined_1_">
	<g>
		<path class="st6" d="M3143.8,307.3c-55.8,39-133.9,89.3-231.5,131.2V250c65.5-36.3,195.3-106.2,277.7-203.7h154.8v1049.1h-201
			V307.3z"/>
		<path class="st6" d="M3585.1,470.5l209.4-228.8h-375.4V63.1h612.6v170.2L3800,467.6c171.5,0,279.1,128.5,279.1,297.2
			c0,205-149.4,347.4-358.6,347.4c-129.8,0-322.4-60-339.2-302.7l201.1-12.6c5.5,121.3,105.9,136.7,138,136.7
			c86.4,0,149.3-78.1,149.3-161.8c0-96.3-76.7-159.1-156.3-159.1c-52.9,0-101.8,20.9-128.3,33.5L3585.1,470.5L3585.1,470.5z"/>
		<g>
			<g>
				<path class="st7" d="M1822.9,639l-39-106H909.1V397.6L791.9,514.3v573.4l628.6,0.1l138.5-389.6h-123.8L1328,981.5H909.1V639
					H1822.9z M1442.3,143.2v-106h-426.5L607.6,445.9l-408-408.1L34.2,38.2l513.4,513.4v537.5h117.2V554.7L1076,143.4L1442.3,143.2z
					 M1682.8,37.2l-160.2,424.3h120.5l98.1-276.4h2.7l321.2,901.4h132.5L1802.9,37.2L1682.8,37.2L1682.8,37.2z M2698.5,626.1
					c115.9-28,238.7-114.4,238.7-302.8c0-136.7-78.1-286.1-358.6-286.1h-325.1v495.6h-180.4l37.7,106h142.7v447.6h117.2V637.2h205
					l258.3,449.3h143.7L2698.5,626.1z M2370.7,531.2V143.2h202.3c121.3,0,238.5,41.9,238.5,196.7c0,125.6-93.5,191.1-231.7,191.1
					h-209.2L2370.7,531.2L2370.7,531.2z"/>
			</g>
		</g>
	</g>
</g>
</svg>
